<?xml version="1.0" encoding="utf-8"?>
<?xml-stylesheet type="text/xsl" href="rss1.xsl"?>
<rss version="2.0" xmlns:atom="http://www.w3.org/2005/Atom" xmlns:content="http://purl.org/rss/1.0/modules/content/" xmlns:dc="http://purl.org/dc/elements/1.1/" xmlns:media="http://search.yahoo.com/mrss/">
<channel>
 <title>Getty</title>
 <link>http://www.gettyimg.com/</link>
 <atom:link href="http://www.gettyimg.com/" rel="self" type="application/rss+xml" />

 
                <item>
                <title><![CDATA[【HD Live Performances】FEED - Carrie Underwood - One More Try - Rock &amp; Roll Hall of Fame Induction Ceremony (2023) 720p HDTV]]></title>
                <link><![CDATA[https://sharemania.us/threads/carrie-underwood-one-more-try-rock-roll-hall-of-fame-induction-ceremony-2023-720p-hdtv.235891/]]></link>
                <description><![CDATA[<article>
<blockquote class="messageText SelectQuoteContainer ugc baseHtml">
<img src="https://images2.imgbox.com/87/95/BLzJ3g1a_o.jpg" class="bbCodeImage LbImage" alt="[​IMG]" data-url="https://images2.imgbox.com/87/95/BLzJ3g1a_o.jpg" style=""><br>
<br>
<img src="https://images2.imgbox.com/42/56/kMgIoKx8_o.jpg" class="bbCodeImage LbImage" alt="[​IMG]" data-url="https://images2.imgbox.com/42/56/kMgIoKx8_o.jpg" style=""> <br>
<b><br>
Source</b>: Rock &amp; Roll Hall of Fame Induction Ceremony (2023) 720p HDTV Backhaul FLAC 5.1 H.264-TrollHD<br>
<br>
<div class="ToggleTriggerAnchor bbCodeSpoilerContainer">
<button type="button" class="button bbCodeSpoilerButton ToggleTrigger Tooltip JsOnly" data-target="> .SpoilerTarget"><span>Spoiler: <span class="SpoilerTitle">MediaInfo</span></span></button>
<div class="SpoilerTarget bbCodeSpoilerText">
<div class="bbCodeBlock bbCodeCode">
<div class="type">Code:</div>
<pre>General
Unique ID                                : 53828420665281894024858397592917538053 (0x287EFA0A712DEE3A21C463EC97067505)
Complete name                            : J:\VIDEO\Rock &amp; Roll Hall of Fame Induction Ceremony (2023) 720p HDTV Backhaul\Carrie Underwood - One More Try - Rock &amp; Roll Hall of Fame Induction Ceremony (2023) 720p HDTV Backhaul FLAC 5.1 H.264-TrollHD.mkv
Format                                   : Matroska
Format version                           : Version 4
File size                                : 970 MiB
Duration                                 : 4 min 12 s
Overall bit rate mode                    : Variable
Overall bit rate                         : 32.2 Mb/s
Frame rate                               : 59.940 FPS
Encoded date                             : 2024-01-15 11:18:29 UTC
Writing application                      : mkvmerge v82.0 ('I'm The President') 64-bit
Writing library                          : libebml v1.4.5 + libmatroska v1.7.1

Video
ID                                       : 1
Format                                   : AVC
Format/Info                              : Advanced Video Codec
Format profile                           : High@L4.1
Format settings                          : CABAC / 6 Ref Frames
Format settings, CABAC                   : Yes
Format settings, Reference frames        : 6 frames
Format settings, GOP                     : M=1, N=17
Codec ID                                 : V_MPEG4/ISO/AVC
Duration                                 : 4 min 12 s
Bit rate                                 : 30.5 Mb/s
Width                                    : 1 280 pixels
Height                                   : 720 pixels
Display aspect ratio                     : 16:9
Active Format Description                : Full frame 16:9 image
Frame rate mode                          : Constant
Frame rate                               : 59.940 (60000/1001) FPS
Color space                              : YUV
Chroma subsampling                       : 4:2:0
Bit depth                                : 8 bits
Scan type                                : Progressive
Bits/(Pixel*Frame)                       : 0.552
Stream size                              : 920 MiB (95%)
Default                                  : Yes
Forced                                   : No
Color range                              : Limited
Color primaries                          : BT.709
Transfer characteristics                 : BT.709
Matrix coefficients                      : BT.709

Audio
ID                                       : 2
Format                                   : FLAC
Format/Info                              : Free Lossless Audio Codec
Codec ID                                 : A_FLAC
Duration                                 : 4 min 12 s
Bit rate mode                            : Variable
Bit rate                                 : 1 658 kb/s
Channel(s)                               : 6 channels
Channel layout                           : L R C LFE Ls Rs
Sampling rate                            : 48.0 kHz
Frame rate                               : 11.719 FPS (4096 SPF)
Bit depth                                : 16 bits
Compression mode                         : Lossless
Delay relative to video                  : 8 ms
Stream size                              : 50.0 MiB (5%)
Writing library                          : libFLAC 1.3.2 (2019-08-04)
Language                                 : English
Default                                  : Yes
Forced                                   : No
MD5 of the unencoded content             : B0F97BA7E6FEC34FAFE48012746D1F91

</pre>
</div></div>
</div><br>
<div class="bbCodeBlock bbCodeVfcHH HiddenContent">
<div class="attribution type">Hidden Content:</div>
<blockquote>You must reply before you can see the hidden data contained here.</blockquote>
</div>
<div class="messageTextEndMarker">&nbsp;</div>
</blockquote>
</article>]]></description>
                <author><![CDATA[Gizmo234]]></author>
                </item>

                
                <item>
                <title><![CDATA[【Requests】[REQ AUD] - Selena Gomez - Stars Dance Japan Version in FLAC]]></title>
                <link><![CDATA[https://sharemania.us/threads/selena-gomez-stars-dance-japan-version-in-flac.235890/]]></link>
                <description><![CDATA[<article>
<blockquote class="messageText SelectQuoteContainer ugc baseHtml">
I'd love to have this album in lossless: <a href="https://www.discogs.com/release/7553322-Selena-Gomez-Stars-Dance" target="_blank" class="externalLink" rel="nofollow">https://www.discogs.com/release/7553322-Selena-Gomez-Stars-Dance</a><br>
Thanks in advance!
<div class="messageTextEndMarker">&nbsp;</div>
</blockquote>
</article>]]></description>
                <author><![CDATA[rebelcaptain1991]]></author>
                </item>

                </channel></rss>